<svg xmlns="http://www.w3.org/2000/svg" width="250" height="154" viewBox="0 0 250 154"><g><g><g><g/><g><g><g><g><path fill="#f8bd4c" d="M234.878 83.3c-1.41-.313-2.595-2.998-2.826-5.378-.317-3.285-2.352-3.603-2.344-6.53.003-1.42 2.193-3.917 3.604-4.388 1.056-.352 2.553.176 3.975 1.649.162-1.375.383-2.479.621-3.213.95-2.924 2.92-5.479 4.565-7.294l-2.843-2.843-21.387 21.387 21.387 21.387 2.94-2.94c-2.593-3.847-4.082-8.513-4.852-13.036-.834.713-2.029 1.38-2.84 1.2z"/></g><g><path fill="#f8bd4c" d="M241.758 68.54c0-1.2 1.713-2.173 3.827-2.173s3.828.972 3.828 2.173c0 1.2-1.714 2.172-3.828 2.172s-3.827-.972-3.827-2.172z"/></g></g><g><g><path fill="#f8bd4c" d="M11.064 55.303L8.956 57.41c.529 1.157 2.282 3.017 3.209 5.243 1.092 2.623 2.306 5.887 2.465 7.846.158 1.96-4.287 3.022-4.926 3.326-.64.303-.737 2.463.703 3.53 1.44 1.066 3.068 1.115 3.308 1.184.241.068 1.117.247.182 1.431-.936 1.185-2.267 2.47-2.697 2.89-.43.42-.694.54-.008.972.686.432 2.904 1.573 3.13 2.99.228 1.416-.772 2.924-3.15 5.432a956.508 956.508 0 0 0-2.88 3.05l2.772 2.772L32.451 76.69z"/></g><g><path fill="#f8bd4c" d="M0 68.54c0-1.2 1.714-2.173 3.828-2.173s3.827.972 3.827 2.173c0 1.2-1.713 2.172-3.827 2.172S0 69.74 0 68.54z"/></g></g></g><g><g><path fill="#293253" d="M206.137 76.665L156.73 27.26l-11.637 11.637-19.756-19.756L105.5 38.978 93.78 27.259 44.375 76.665l49.406 49.407 11.719-11.719 19.838 19.838 19.756-19.756 11.637 11.637z"/></g><g><path fill="#f5e8db" d="M93.781 119.47L50.977 76.664l42.804-42.804 11.719 11.72 19.838-19.839 19.756 19.756 11.636-11.637 42.804 42.804-42.804 42.804-11.636-11.636-19.756 19.755-19.838-19.837zm51.313-10.812l11.636 11.636 43.63-43.629-43.63-43.629-11.636 11.637-19.756-19.756L105.5 44.755 93.78 33.036l-43.629 43.63 43.63 43.628 11.718-11.718 19.838 19.838z"/></g></g><g><g><path fill="#ea5d4f" d="M203.636 76.665l.025-.024.024.024-.024.025zm-16.581 34.018l16.767-16.767 8.718 8.717 8.532-8.532-8.718-8.718 8.718-8.718-8.718-8.717 8.718-8.718-8.532-8.533-8.718 8.718-16.767-16.767-8.694 8.693 16.768 16.767-8.558 8.557 8.558 8.557-16.768 16.767z"/></g><g><path fill="#ea5d4f" d="M46.975 76.69l-.024-.025.024-.024.025.024zm25.3 25.3L55.508 85.221l8.556-8.557-8.556-8.557 16.767-16.767-8.693-8.693-16.768 16.767-8.717-8.718-8.533 8.533 8.718 8.718-8.718 8.717 8.718 8.718-8.718 8.718 8.533 8.532 8.717-8.717 16.768 16.767z"/></g></g><g><g><path fill="#ea5d4f" d="M125.292 13.13l-6.565-6.565L125.292 0l6.565 6.565z"/></g><g><path fill="#ea5d4f" d="M125.292 153.33l-6.565-6.564 6.565-6.566 6.565 6.566z"/></g></g><g><g><path fill="#f5e8db" d="M97.436 83.276c0 1.338-1.125 2.462-2.463 2.462h-12.26V80.76h12.153c1.392 0 2.57 1.125 2.57 2.517zM82.713 66.68h11.885c1.339 0 2.463 1.124 2.463 2.462 0 1.392-1.124 2.516-2.463 2.516H82.713zm21.254 9.315c1.564-2.166 2.453-4.873 2.208-7.817-.501-6.05-5.663-10.653-11.734-10.653H75.473a1.86 1.86 0 0 0-1.86 1.86V92.98a1.86 1.86 0 0 0 1.86 1.86h19.382c6.07 0 11.23-4.616 11.7-10.668.245-3.139-.811-5.985-2.588-8.176z"/></g><g><path fill="#f5e8db" d="M163.642 86.22c-5.515 0-10.065-4.497-10.065-10.065 0-5.567 4.55-10.064 10.065-10.064a10.053 10.053 0 0 1 10.064 10.064 10.053 10.053 0 0 1-10.064 10.065zm0-29.23c-10.547 0-19.166 8.62-19.166 19.165 0 10.6 8.62 19.166 19.166 19.166 10.6 0 19.165-8.566 19.165-19.166 0-10.546-8.565-19.165-19.165-19.165z"/></g><g><g><path fill="#f5e8db" d="M122.422 81.241l4.123-10.814 4.175 10.814zM145.05 92.96l-9.126-23.624a1.192 1.192 0 0 0-.51-.6l-13.562-7.936a1.114 1.114 0 0 0-1.602.563L108.09 92.96a1.46 1.46 0 0 0 1.363 1.985h6.719c.605 0 1.147-.372 1.364-.937l1.407-3.667H134.2l1.407 3.667c.217.565.76.937 1.364.937h6.716a1.461 1.461 0 0 0 1.363-1.987z"/></g><g><path fill="#f5e8db" d="M122.794 58.745a3 3 0 0 1-1.098-4.098l.679-1.175a3 3 0 0 1 4.098-1.098l11.15 6.437a3 3 0 0 1 1.098 4.098l-.679 1.175a3 3 0 0 1-4.098 1.098z"/></g></g></g></g></g></g></g></svg>